HIERARCHY
ROOT Pelvis
{
	OFFSET 0.000000 0.000000 0.000000
	CHANNELS 6 Xposition Yposition Zposition Xrotation Yrotation Zrotation
	JOINT LeftUpLeg_virtual
	{
		OFFSET 0.000000 0.000000 0.000000
		CHANNELS 3 Xrotation Yrotation Zrotation
		JOINT LeftUpLeg
		{
			OFFSET 18.735201 -5.666702 -4.541200
			CHANNELS 3 Xrotation Yrotation Zrotation
			JOINT LeftLeg
			{
				OFFSET -0.021200 -31.938179 0.493100
				CHANNELS 3 Xrotation Yrotation Zrotation
				JOINT LeftFoot
				{
					OFFSET 0.021200 -31.938179 -4.336299
					CHANNELS 3 Xrotation Yrotation Zrotation
					JOINT LeftToeBase
					{
						OFFSET 0.943001 -26.722000 15.023500
						CHANNELS 3 Xrotation Yrotation Zrotation
						End Site
						{
							OFFSET 0 0 0
						}
					}
				}
			}
		}
	}
	JOINT RightUpLeg_virtual
	{
		OFFSET 0.000000 0.000000 0.000000
		CHANNELS 3 Xrotation Yrotation Zrotation
		JOINT RightUpLeg
		{
			OFFSET -18.735201 -5.666702 -4.541200
			CHANNELS 3 Xrotation Yrotation Zrotation
			JOINT RightLeg
			{
				OFFSET 0.018946 -31.938133 0.493100
				CHANNELS 3 Xrotation Yrotation Zrotation
				JOINT RightFoot
				{
					OFFSET -0.018946 -31.938126 -4.336299
					CHANNELS 3 Xrotation Yrotation Zrotation
					JOINT RightToeBase
					{
						OFFSET -0.943001 -26.722004 15.023500
						CHANNELS 3 Xrotation Yrotation Zrotation
						End Site
						{
							OFFSET 0 0 0
						}
					}
				}
			}
		}
	}
	JOINT Hips_virtual
	{
		OFFSET 0.000000 0.000000 0.000000
		CHANNELS 3 Xrotation Yrotation Zrotation
		JOINT Hips
		{
			OFFSET -0.000000 -0.000000 -0.000000
			CHANNELS 3 Xrotation Yrotation Zrotation
			JOINT Spine
			{
				OFFSET 0.000000 10.199997 -0.299500
				CHANNELS 3 Xrotation Yrotation Zrotation
				JOINT Spine1
				{
					OFFSET 0.000000 11.900002 -1.516600
					CHANNELS 3 Xrotation Yrotation Zrotation
					JOINT Spine2
					{
						OFFSET 0.000000 13.600006 -2.842500
						CHANNELS 3 Xrotation Yrotation Zrotation
						JOINT Neck_virtual
						{
							OFFSET 0.000000 0.000000 0.000000
							CHANNELS 3 Xrotation Yrotation Zrotation
							JOINT Neck
							{
								OFFSET 0.000000 9.624100 -2.890100
								CHANNELS 3 Xrotation Yrotation Zrotation
								JOINT Head
								{
									OFFSET 0.000000 14.068802 -1.351900
									CHANNELS 3 Xrotation Yrotation Zrotation
									End Site
									{
										OFFSET 0 0 0
									}
								}
							}
						}
						JOINT LeftShoulder_virtual
						{
							OFFSET 0.000000 0.000000 0.000000
							CHANNELS 3 Xrotation Yrotation Zrotation
							JOINT LeftShoulder
							{
								OFFSET 15.263000 10.923401 -0.547700
								CHANNELS 3 Xrotation Yrotation Zrotation
								JOINT LeftArm
								{
									OFFSET 25.438599 -2.830597 -13.032500
									CHANNELS 3 Xrotation Yrotation Zrotation
									JOINT LeftForeArm
									{
										OFFSET 29.960503 0.000000 0.000000
										CHANNELS 3 Xrotation Yrotation Zrotation
										JOINT LeftHand
										{
											OFFSET 27.849251 0.000000 0.000000
											CHANNELS 3 Xrotation Yrotation Zrotation
											End Site
											{
												OFFSET 0 0 0
											}
										}
									}
								}
							}
						}
						JOINT RightShoulder_virtual
						{
							OFFSET 0.000000 0.000000 0.000000
							CHANNELS 3 Xrotation Yrotation Zrotation
							JOINT RightShoulder
							{
								OFFSET -15.263000 10.923401 -0.547700
								CHANNELS 3 Xrotation Yrotation Zrotation
								JOINT RightArm
								{
									OFFSET -25.438599 -2.830597 -13.032500
									CHANNELS 3 Xrotation Yrotation Zrotation
									JOINT RightForeArm
									{
										OFFSET -29.960503 0.000000 0.000000
										CHANNELS 3 Xrotation Yrotation Zrotation
										JOINT RightHand
										{
											OFFSET -27.849251 0.000000 0.000000
											CHANNELS 3 Xrotation Yrotation Zrotation
											End Site
											{
												OFFSET 0 0 0
											}
										}
									}
								}
							}
						}
					}
				}
			}
		}
	}
}
MOTION
Frames: 9
Frame Time: 0.03333333
-3.821698 91.580933 8.633278 0.000000 0.000000 0.000000 55.556465 -79.886582 51.878623 -34.746002 -11.568941 18.848942 37.145338 10.205481 -8.887686 -12.847154 14.571457 -13.968355 0.000000 0.000000 0.000000 106.715156 -77.251352 103.975403 -25.778027 -36.278464 -18.982610 37.926951 -7.422974 -1.419006 -11.997657 -10.121991 3.419376 0.000000 0.000000 0.000000 -8.148564 -62.816287 -0.843746 6.716330 -58.065651 -3.315429 5.549643 -3.484369 1.152039 -0.825746 -1.303649 1.773177 0.000000 0.000000 0.000000 -1.059056 0.745770 3.400100 -1.484632 2.503483 0.973798 0.000000 0.000000 0.000000 -1.257229 -1.132989 0.924136 -0.477801 -0.307703 -3.563503 0.327812 -1.860065 -57.396593 5.716772 -27.057432 -10.712130 0.000000 0.000000 0.000000 -0.868552 -2.214749 3.164593 1.552913 0.248536 16.129941 18.766749 5.546321 42.134235 12.276278 56.564010 -5.516931 0.000000 0.000000 0.000000 
-3.607429 91.490326 7.148880 0.000000 0.000000 0.000000 61.097224 -80.226617 58.199277 -35.281950 -12.188431 19.741716 38.822379 10.482330 -9.643357 -11.534632 15.107388 -14.835459 0.000000 0.000000 0.000000 109.663017 -77.186977 107.448943 -26.937020 -36.404253 -19.202981 38.310036 -6.231185 -2.042560 -11.653394 -8.584943 3.184588 0.000000 0.000000 0.000000 -8.124106 -63.087247 -0.742180 7.077997 -59.262983 -2.804333 5.746962 -3.665156 1.265886 -0.757434 -1.407679 1.876450 0.000000 0.000000 0.000000 -1.149641 0.300946 3.323891 -1.529735 2.186348 0.930506 0.000000 0.000000 0.000000 -1.047887 -1.204381 1.051506 -0.287331 -0.598195 -3.350437 1.222140 -1.757890 -57.222440 6.011378 -26.430711 -10.527624 0.000000 0.000000 0.000000 -0.784237 -2.368011 3.291344 1.610444 -0.185592 16.574081 18.368318 5.836836 42.650201 12.034088 56.318250 -5.177572 0.000000 0.000000 0.000000 
-3.362453 91.432610 5.594383 0.000000 0.000000 0.000000 67.086193 -80.456637 65.186963 -36.112269 -12.891921 20.827291 40.639339 10.629917 -10.283362 -10.160008 15.448556 -15.578531 0.000000 0.000000 0.000000 112.318834 -77.110800 110.787779 -28.403625 -36.451258 -19.406143 38.811396 -5.095384 -2.644083 -11.246343 -7.099090 2.956314 0.000000 0.000000 0.000000 -8.141236 -63.385180 -0.716317 7.210025 -60.559176 -2.614535 5.942262 -3.831938 1.346562 -0.696645 -1.499722 1.962190 0.000000 0.000000 0.000000 -1.245462 -0.090306 3.299932 -1.582005 1.896544 0.920360 0.000000 0.000000 0.000000 -0.992045 -1.264007 1.136074 -0.233541 -0.902082 -3.317463 1.147195 -1.294286 -57.338270 5.808842 -25.994424 -10.569666 0.000000 0.000000 0.000000 -0.652943 -2.497284 3.374009 1.719141 -0.573030 16.820046 18.236590 6.288524 42.875618 12.018937 56.094377 -5.060917 0.000000 0.000000 0.000000 
-3.244937 91.364403 3.724493 0.000000 0.000000 0.000000 74.471178 -80.658660 73.481723 -36.982459 -13.615308 21.809820 42.613386 10.591571 -10.849087 -8.685696 15.567143 -16.300532 0.000000 0.000000 0.000000 114.422334 -76.856041 113.580418 -29.526986 -36.584358 -19.316195 39.428032 -4.168963 -3.173133 -10.774044 -5.849504 2.714632 0.000000 0.000000 0.000000 -8.273513 -63.659460 -0.804518 6.943369 -61.731168 -2.925906 6.182468 -3.936207 1.354003 -0.609377 -1.551779 2.006883 0.000000 0.000000 0.000000 -1.257693 -0.405363 3.391955 -1.599321 1.650292 0.977280 0.000000 0.000000 0.000000 -0.931851 -1.296613 1.180830 -0.179369 -1.159888 -3.429795 0.980255 -0.820211 -57.690578 5.541063 -25.632640 -10.721693 0.000000 0.000000 0.000000 -0.535141 -2.590737 3.396847 1.807909 -0.889337 16.847746 18.022199 6.810592 42.932503 11.996857 55.940571 -5.015803 0.000000 0.000000 0.000000 
-3.356439 91.336792 1.886318 0.000000 0.000000 0.000000 83.711256 -80.690653 83.501740 -37.763057 -14.371111 22.726290 44.778860 10.385385 -11.251181 -7.084693 15.450264 -16.865313 0.000000 0.000000 0.000000 115.420935 -76.393835 115.264688 -30.125434 -36.819651 -18.780123 39.942284 -3.426248 -3.573961 -10.377777 -4.857009 2.567176 0.000000 0.000000 0.000000 -8.349898 -64.059811 -0.845061 7.198306 -63.155843 -2.658385 6.491230 -3.994992 1.369995 -0.485948 -1.578014 2.056713 0.000000 0.000000 0.000000 -1.176702 -0.671928 3.366976 -1.576142 1.427571 0.967888 0.000000 0.000000 0.000000 -0.902662 -1.317381 1.217989 -0.170569 -1.436093 -3.576620 0.736601 -0.340961 -58.130859 5.220387 -25.341672 -10.913030 0.000000 0.000000 0.000000 -0.408411 -2.663243 3.452949 1.885216 -1.162972 17.038028 17.643569 7.454048 43.223172 11.878815 55.924523 -4.850138 0.000000 0.000000 0.000000 
-3.418301 91.347183 0.083242 0.000000 0.000000 0.000000 94.629361 -80.543811 94.980071 -38.422703 -15.158297 23.360777 46.767682 9.998255 -11.412125 -5.577325 15.068207 -17.216294 0.000000 0.000000 0.000000 116.296729 -75.915326 116.901611 -30.774339 -37.073352 -18.162585 40.071279 -2.824472 -3.892085 -10.312459 -4.072925 2.467464 0.000000 0.000000 0.000000 -8.442031 -64.534113 -0.922252 7.675825 -64.658846 -2.067843 6.760365 -4.105771 1.380784 -0.382936 -1.622984 2.097715 0.000000 0.000000 0.000000 -1.124006 -0.943131 3.348861 -1.568072 1.206846 0.964707 0.000000 0.000000 0.000000 -0.869418 -1.367528 1.252970 -0.157303 -1.777492 -3.710941 0.508339 0.175903 -58.537446 4.896223 -25.041897 -11.075350 0.000000 0.000000 0.000000 -0.290743 -2.746147 3.489324 1.949521 -1.476620 17.181728 17.298241 8.032267 43.540325 11.803649 55.948641 -4.705702 0.000000 0.000000 0.000000 
-3.531800 91.502640 -1.709583 0.000000 0.000000 0.000000 108.537484 -79.992799 109.362974 -38.944950 -16.234788 23.736058 48.212738 9.466798 -10.882517 -4.371626 14.278405 -16.745925 0.000000 0.000000 0.000000 116.560334 -75.407604 117.987884 -31.373794 -37.318733 -17.386595 39.909338 -2.275536 -4.180629 -10.506000 -3.376638 2.384616 0.000000 0.000000 0.000000 -8.789691 -64.995192 -1.205419 7.175679 -66.167895 -2.253977 6.944453 -4.190502 1.358356 -0.323333 -1.652631 2.120604 0.000000 0.000000 0.000000 -1.029532 -1.202672 3.319032 -1.534585 0.982452 0.959841 0.000000 0.000000 0.000000 -0.870729 -1.400739 1.282994 -0.165769 -2.111731 -3.829670 0.141783 0.782863 -58.874093 4.513121 -24.770405 -11.199785 0.000000 0.000000 0.000000 -0.192647 -2.802754 3.518312 1.989668 -1.734922 17.331272 16.973392 8.670277 43.857475 11.773325 55.992006 -4.574138 0.000000 0.000000 0.000000 
-3.543072 91.728500 -3.356680 0.000000 0.000000 0.000000 118.790513 -79.261367 119.573171 -38.997921 -16.969456 23.574350 49.115457 8.861736 -9.895401 -3.424662 13.240807 -15.716590 0.000000 0.000000 0.000000 116.739066 -74.879856 118.950558 -31.875229 -37.583666 -16.571229 39.582483 -1.775863 -4.430253 -10.866102 -2.764335 2.337749 0.000000 0.000000 0.000000 -9.234248 -65.467466 -1.625867 6.364016 -67.646569 -2.957926 7.016983 -4.176101 1.336901 -0.320587 -1.633759 2.149379 0.000000 0.000000 0.000000 -0.936960 -1.446421 3.277558 -1.505944 0.752938 0.954589 0.000000 0.000000 0.000000 -0.669825 -1.368970 1.305769 0.021832 -2.314445 -3.957831 1.286726 0.680204 -59.102522 4.859062 -24.359641 -11.097456 0.000000 0.000000 0.000000 -0.123385 -2.823216 3.546884 1.986637 -1.935378 17.505459 16.608568 9.439876 44.234942 11.765462 56.105117 -4.423970 0.000000 0.000000 0.000000 
-3.406337 91.797935 -4.833504 0.000000 0.000000 0.000000 124.843605 -78.317012 125.179759 -38.154676 -17.408564 23.464019 50.041234 8.409693 -8.476176 -2.300379 12.156138 -13.940922 0.000000 0.000000 0.000000 116.387544 -74.469156 119.328978 -32.347807 -37.769454 -15.787897 39.140433 -1.303479 -4.641664 -11.316125 -2.209730 2.332079 0.000000 0.000000 0.000000 -9.758822 -66.068031 -2.163454 5.443971 -69.470032 -3.806697 7.111615 -4.127760 1.273509 -0.296888 -1.595699 2.147663 0.000000 0.000000 0.000000 -0.625882 -1.665045 3.219103 -1.377973 0.532111 0.943384 0.000000 0.000000 0.000000 -0.644630 -1.343399 1.262820 0.043307 -2.541749 -4.292780 1.388873 1.133479 -59.666805 4.649875 -24.033817 -11.257940 0.000000 0.000000 0.000000 -0.075579 -2.821344 3.542763 1.948925 -2.055629 17.591617 16.183332 10.165274 44.418318 11.722650 56.103672 -4.311205 0.000000 0.000000 0.000000 
